<svg width="312" height="70" viewBox="0 0 312 70" fill="none" xmlns="http://www.w3.org/2000/svg">
<path d="M35.1541 70.0001L44.9888 14.6879C54.3639 14.6879 57.3208 15.7161 57.7468 19.9121C57.7468 19.9121 64.0349 17.5671 67.2073 12.8048C54.8298 7.06992 42.3935 6.81112 42.3935 6.81112L35.1375 15.6497L35.1537 15.6485L27.8969 6.80957C27.8969 6.80957 15.4611 7.06876 3.08549 12.804C6.25481 17.5663 12.5452 19.911 12.5452 19.911C12.9743 15.7146 15.9285 14.6867 25.2394 14.6801L35.1541 70.0001Z" fill="white"/>
<path d="M35.1499 4.25782C45.1549 4.18134 56.6074 5.80559 68.3302 10.9151C69.8972 8.09499 70.3001 6.84851 70.3001 6.84851C57.4846 1.77876 45.4833 0.0432619 35.1487 0C24.8149 0.0432619 12.8144 1.77876 0 6.84851C0 6.84851 0.571674 8.38392 1.9688 10.9151C13.6901 5.8052 25.144 4.18134 35.1487 4.25782H35.1499Z" fill="white"/>
<path d="M277.808 31.8719V49.9575H283.609V37.9166H304.718V49.9575H310.514V31.903L277.808 31.8719Z" fill="white"/>
<path d="M282.963 26.0205H305.266C308.362 25.4052 310.667 22.6715 311.318 20.0276H276.914C277.554 22.6738 279.893 25.4052 282.963 26.0205Z" fill="white"/>
<path d="M260.242 49.9711C263.168 48.7314 264.739 46.5866 265.345 44.0772H239.33L239.348 20.0436L233.517 20.0608V49.9735L260.242 49.9711Z" fill="white"/>
<path d="M190.149 25.9423H210.747C213.849 25.0418 216.46 22.6739 217.096 20.053H184.377V37.728H211.157V43.9336L190.149 43.9497C186.858 44.8697 184.067 47.0801 182.674 50.0001L184.375 49.969H216.907V31.8559H190.147L190.149 25.9423Z" fill="white"/>
<path d="M139.304 25.9975H161.598C164.699 25.3799 167.005 22.6485 167.652 20H133.251C133.892 22.6485 136.231 25.3799 139.304 25.9975Z" fill="white"/>
<path d="M139.304 37.8197H161.598C164.699 37.2091 167.005 34.4754 167.652 31.8246H133.251C133.892 34.4743 136.231 37.2079 139.304 37.8197Z" fill="white"/>
<path d="M139.304 49.9666H161.598C164.699 49.3513 167.005 46.6177 167.652 43.9714H133.251C133.892 46.6177 136.231 49.3513 139.304 49.9666Z" fill="white"/>
<path d="M81.3001 20.0725C81.9706 22.6888 84.2339 25.3604 87.339 26.0297H96.7245L97.2029 26.2183V49.9023H103.062V26.2183L103.596 26.0297H112.988C116.127 25.2212 118.342 22.69 119.002 20.0725V20.0161H81.3024L81.3001 20.0725Z" fill="white"/>
</svg>
