<svg width="71" height="70" viewBox="0 0 71 70" fill="none" xmlns="http://www.w3.org/2000/svg">
<path d="M35.1541 70.0001L44.9888 14.6878C54.3639 14.6878 57.3207 15.7161 57.7468 19.9121C57.7468 19.9121 64.0348 17.5671 67.2072 12.8048C54.8297 7.0699 42.3935 6.8111 42.3935 6.8111L35.1375 15.6497L35.1537 15.6485L27.8969 6.80956C27.8969 6.80956 15.461 7.06874 3.08545 12.804C6.25477 17.5663 12.5451 19.9109 12.5451 19.9109C12.9743 15.7145 15.9284 14.6867 25.2394 14.6801L35.1541 70.0001Z" fill="white"/>
<path d="M35.1499 4.25782C45.1549 4.18134 56.6074 5.80559 68.3302 10.9151C69.8972 8.09499 70.3001 6.84851 70.3001 6.84851C57.4846 1.77876 45.4833 0.0432619 35.1487 0C24.8149 0.0432619 12.8144 1.77876 0 6.84851C0 6.84851 0.571674 8.38392 1.9688 10.9151C13.6901 5.8052 25.144 4.18134 35.1487 4.25782H35.1499Z" fill="white"/>
</svg>
