<svg width="256" height="80" viewBox="0 0 256 80" fill="none" xmlns="http://www.w3.org/2000/svg">
<path d="M203.008 39.8719V57.9575H208.809V45.9166H229.918V57.9575H235.714V39.903L203.008 39.8719Z" fill="white" fill-opacity="0.2"/>
<path d="M208.163 34.0205H230.466C233.562 33.4052 235.867 30.6716 236.518 28.0276H202.114C202.754 30.6739 205.093 33.4052 208.163 34.0205Z" fill="white" fill-opacity="0.2"/>
<path d="M185.442 57.9712C188.368 56.7314 189.939 54.5866 190.545 52.0772H164.53L164.548 28.0436L158.717 28.0609V57.9735L185.442 57.9712Z" fill="white" fill-opacity="0.2"/>
<path d="M115.349 33.9423H135.947C139.049 33.0418 141.66 30.6739 142.296 28.0529H109.577V45.7279H136.357V51.9336L115.349 51.9497C112.058 52.8697 109.267 55.0801 107.874 58L109.575 57.969H142.107V39.8558H115.347L115.349 33.9423Z" fill="white" fill-opacity="0.2"/>
<path d="M64.5036 33.9975H86.7983C89.8988 33.3799 92.2047 30.6485 92.8521 28H58.4509C59.0915 30.6485 61.4307 33.3799 64.5036 33.9975Z" fill="white" fill-opacity="0.2"/>
<path d="M64.5036 45.8198H86.7983C89.8988 45.2091 92.2047 42.4755 92.8521 39.8246H58.4509C59.0915 42.4743 61.4307 45.208 64.5036 45.8198Z" fill="white" fill-opacity="0.2"/>
<path d="M64.5036 57.9666H86.7983C89.8988 57.3513 92.2047 54.6177 92.8521 51.9714H58.4509C59.0915 54.6177 61.4307 57.3513 64.5036 57.9666Z" fill="white" fill-opacity="0.2"/>
<path d="M6.5 28.0725C7.17047 30.6888 9.43377 33.3604 12.5389 34.0297H21.9244L22.4028 34.2183V57.9023H28.2623V34.2183L28.7959 34.0297H38.1883C41.3267 33.2212 43.5417 30.69 44.2018 28.0725V28.0161H6.5023L6.5 28.0725Z" fill="white" fill-opacity="0.2"/>
</svg>
