<svg width="482" height="33" viewBox="0 0 482 33" fill="none" xmlns="http://www.w3.org/2000/svg">
<path d="M7.57436 17.2694L4.08407 20.7567L0.596802 17.2694L4.08407 13.7821L7.57436 17.2694ZM16.0361 8.8016L22.0121 14.7806L25.4994 11.2934L16.0361 1.83008L6.57283 11.2934L10.0601 14.7806L16.0361 8.8016ZM27.9912 13.7821L24.5039 17.2694L27.9912 20.7567L31.4754 17.2694L27.9912 13.7821ZM16.0361 25.7372L10.0601 19.7612L6.57283 23.2454L16.0361 32.7087L25.4994 23.2454L22.0121 19.7612L16.0361 25.7372ZM16.0361 20.7567L19.5234 17.2694L16.0361 13.7821L12.5488 17.2694L16.0361 20.7567ZM52.8395 21.0915V21.0432C52.8395 18.7687 51.6328 17.6314 49.669 16.8833C50.8756 16.2045 51.8953 15.1396 51.8953 13.2301V13.1818C51.8953 10.5211 49.7655 8.8016 46.3054 8.8016H38.45V25.7372H46.5045C50.3266 25.7372 52.8455 24.1896 52.8455 21.0915H52.8395ZM48.1938 13.8515C48.1938 15.1095 47.1531 15.6434 45.509 15.6434H42.079V12.0687H45.7564C47.328 12.0687 48.1999 12.6961 48.1999 13.8093L48.1938 13.8515ZM49.138 20.6269C49.138 21.8849 48.1456 22.4641 46.4985 22.4641H42.079V18.7445H46.3838C48.2964 18.7445 49.1441 19.4474 49.1441 20.5847L49.138 20.6269ZM60.6678 25.7372V8.8016H56.9301V25.7372H60.6678ZM80.6954 25.7372V8.8016H77.006V19.2302L69.0722 8.8016H65.6362V25.7372H69.3135V14.9707L77.5128 25.7372H80.6954ZM101.332 25.7372L94.0623 8.68093H90.6263L83.3712 25.7372H87.1692L88.7228 21.9392H95.8844L97.4319 25.7372H101.332ZM94.5601 18.648H90.0471L92.2976 13.1577L94.5601 18.648ZM119.092 25.7372V8.8016H115.402V19.2302L107.465 8.8016H104.032V25.7372H107.707V14.9707L115.909 25.7372H119.092ZM138.323 23.0041L135.955 20.6088C134.624 21.8155 133.439 22.5908 131.502 22.5908C128.6 22.5908 126.591 20.1775 126.591 17.2694V17.2211C126.591 14.3191 128.648 11.948 131.502 11.948C133.195 11.948 134.519 12.672 135.834 13.8575L138.196 11.1244C136.625 9.57689 134.715 8.512 131.52 8.512C126.32 8.512 122.691 12.4548 122.691 17.2603V17.3086C122.691 22.1715 126.392 26.0177 131.376 26.0177C134.637 26.0268 136.57 24.8654 138.311 23.0041H138.323ZM154.221 25.7372V22.4189H145.014V18.8562H152.999V15.5378H145.014V12.1169H154.088V8.79859H141.312V25.7342L154.221 25.7372Z" fill="#F2F2F2"/>
<path fill-rule="evenodd" clip-rule="evenodd" d="M207.543 22.6483C208.429 22.6483 209.258 22.4863 210.039 22.1717C210.039 22.2003 211.63 24.6689 211.659 24.6784C210.25 25.4331 208.673 25.8169 207.076 25.7936C202.188 25.8031 198.644 22.572 198.644 17.4348C198.644 12.2594 202.36 9.04737 207.076 9.04737C208.743 9.04737 210.068 9.40955 211.392 10.1149L209.868 12.6883C209.067 12.3737 208.248 12.2308 207.39 12.2308C204.503 12.2308 202.264 14.0703 202.264 17.4348C202.264 20.6182 204.427 22.6483 207.543 22.6483ZM219.862 9.04737C224.664 9.04737 228.142 12.45 228.142 17.4348C228.142 22.3909 224.664 25.7936 219.853 25.7936C215.089 25.7936 211.611 22.3909 211.611 17.4348C211.611 12.45 215.089 9.04737 219.862 9.04737V9.04737ZM219.862 12.1164C217.185 12.1164 215.232 14.1846 215.232 17.4348C215.232 20.6563 217.185 22.7245 219.862 22.7245C222.606 22.7245 224.531 20.6563 224.531 17.4348C224.531 14.1846 222.606 12.1164 219.862 12.1164V12.1164ZM230.419 25.4314V9.40955H234.002V25.4218H230.419V25.4314ZM229.943 4.48196C229.98 3.91194 230.232 3.37741 230.649 2.98685C231.066 2.59629 231.616 2.37896 232.187 2.37896C232.758 2.37896 233.307 2.59629 233.724 2.98685C234.141 3.37741 234.393 3.91194 234.43 4.48196C234.431 5.08047 234.196 5.65519 233.778 6.08283C233.359 6.51047 232.79 6.75696 232.191 6.76943C231.593 6.75696 231.024 6.51047 230.605 6.08283C230.187 5.65519 229.952 5.08047 229.952 4.48196H229.943ZM237.127 10.4199C239.473 9.53751 241.956 9.07301 244.463 9.04737C248.56 9.04737 251.152 10.6009 251.152 15.1187V25.4314H247.617V15.4523C247.617 13.1362 246.178 12.307 244.187 12.307C242.92 12.307 241.653 12.4786 240.709 12.774V25.4218H237.136V10.4199H237.127ZM254.153 0.831543H257.736V9.83845C258.498 9.43815 259.975 9.04737 261.385 9.04737C266.015 9.04737 269.483 12.002 269.483 17.1488C269.483 22.3242 266.053 25.7936 260.127 25.7936C257.812 25.7936 255.782 25.317 254.153 24.7451V0.831543V0.831543ZM257.736 22.3909C258.422 22.6102 259.327 22.7245 260.232 22.7245C263.519 22.7245 265.872 20.9136 265.872 17.2251C265.872 14.1084 263.662 12.2689 260.956 12.2689C259.546 12.2689 258.46 12.6311 257.736 13.0314V22.3909ZM279.84 14.6898C279.84 12.9551 278.525 12.1545 276.753 12.1545C274.914 12.1545 273.466 12.6978 272.132 13.4603V10.3436C273.728 9.47612 275.518 9.02999 277.334 9.04737C280.841 9.04737 283.337 10.4961 283.337 14.5087V25.1073C281.813 25.5076 279.65 25.7554 277.839 25.7554C273.685 25.7554 270.646 24.4973 270.646 20.8755C270.646 17.6159 273.428 16.0242 278.059 16.0242H279.831V14.6898H279.84ZM279.84 18.4069H278.316C275.82 18.4069 274.19 19.1408 274.19 20.7707C274.19 22.4291 275.715 23.0772 277.878 23.0772C278.421 23.0772 279.183 23.0105 279.831 22.9056V18.4165L279.84 18.4069ZM285.938 21.0947C287.334 22.2013 289.046 22.8355 290.826 22.9056C292.417 22.9056 293.465 22.3624 293.465 21.0947C293.465 19.7889 292.522 19.3219 290.464 18.7786C287.129 18.0162 285.729 16.6818 285.729 13.8892C285.729 10.6391 288.187 9.04737 291.445 9.04737C293.256 9.04737 294.694 9.43815 296.038 10.2769V13.5651C294.761 12.5457 293.183 11.9762 291.55 11.9448C289.997 11.9448 289.168 12.7073 289.168 13.7557C289.168 14.8042 289.845 15.3379 291.693 15.8526C295.352 16.6437 296.933 18.0162 296.933 20.9041C296.933 24.2781 294.37 25.7936 290.902 25.7936C289.163 25.8283 287.447 25.3796 285.948 24.4973V21.0947H285.938ZM301.84 18.2354V18.3021C302.059 21.1614 304.508 22.7245 307.014 22.7245C309.215 22.7245 310.806 22.2099 312.397 21.1614V24.3067C310.949 25.3265 308.815 25.7936 306.757 25.7936C301.764 25.7936 298.372 22.6102 298.372 17.5491C298.372 12.45 301.697 9.04737 306.109 9.04737C310.777 9.04737 312.978 12.0497 312.978 16.4245V18.2354H301.831H301.84ZM309.615 15.9193C309.539 13.4222 308.31 12.0497 305.994 12.0497C303.936 12.0497 302.421 13.4984 301.945 15.9193H309.615Z" fill="#F2F2F2"/>
<path d="M455.472 17.0446C455.472 16.3103 455.472 15.6195 455.448 14.9816C455.432 14.3798 455.373 13.78 455.27 13.1868C455.174 12.6451 455.005 12.119 454.767 11.623C454.515 11.1117 454.179 10.6464 453.773 10.2468C453.197 9.65664 452.511 9.18428 451.755 8.85612C450.936 8.52457 450.059 8.36022 449.176 8.37274C448.289 8.36128 447.409 8.52557 446.586 8.85612C445.825 9.17979 445.135 9.65011 444.556 10.2402C444.15 10.6396 443.816 11.1049 443.566 11.6164C443.33 12.1125 443.164 12.6387 443.071 13.1802C442.971 13.7735 442.913 14.3734 442.899 14.975C442.883 15.6129 442.875 16.3037 442.879 17.038C442.883 17.7723 442.879 18.4578 442.899 19.0996C442.913 19.7012 442.971 20.3011 443.071 20.8945C443.164 21.436 443.33 21.9621 443.566 22.4582C443.817 22.9691 444.151 23.4343 444.556 23.8344C445.134 24.425 445.825 24.8946 446.586 25.2159C447.409 25.5486 448.289 25.7138 449.176 25.7019C450.059 25.7149 450.936 25.5496 451.755 25.2159C452.511 24.8921 453.197 24.4227 453.773 23.8344C454.179 23.4341 454.514 22.969 454.767 22.4582C455.005 21.9623 455.174 21.4362 455.27 20.8945C455.371 20.3029 455.43 19.7049 455.446 19.1049C455.466 18.463 455.475 17.7763 455.469 17.0433L455.472 17.0446ZM452.143 17.0446C452.143 17.8581 452.131 18.5357 452.103 19.0745C452.088 19.5171 452.044 19.9583 451.971 20.3952C451.922 20.6864 451.833 20.9694 451.707 21.2365C451.605 21.4519 451.471 21.6508 451.311 21.8269C451.063 22.1107 450.755 22.3362 450.41 22.4873C450.021 22.6535 449.602 22.738 449.18 22.7356C448.755 22.7374 448.334 22.653 447.943 22.4873C447.589 22.339 447.273 22.1134 447.018 21.8269C446.857 21.6516 446.723 21.4525 446.622 21.2365C446.5 20.9691 446.415 20.686 446.371 20.3952C446.301 19.9581 446.256 19.517 446.239 19.0745C446.215 18.5357 446.203 17.859 446.203 17.0446C446.203 16.231 446.215 15.5522 446.239 15.0133C446.256 14.5708 446.301 14.1298 446.371 13.6926C446.415 13.4019 446.5 13.1187 446.622 12.8513C446.723 12.6355 446.857 12.4364 447.018 12.2609C447.274 11.9749 447.59 11.7493 447.943 11.6006C448.334 11.433 448.755 11.3484 449.18 11.3523C449.603 11.3479 450.022 11.4325 450.41 11.6006C450.755 11.7521 451.062 11.9775 451.311 12.2609C451.471 12.4372 451.605 12.6361 451.707 12.8513C451.833 13.1185 451.922 13.4015 451.971 13.6926C452.044 14.1295 452.088 14.5707 452.103 15.0133C452.132 15.5508 452.143 16.2297 452.143 17.0446Z" fill="#F2F2F2"/>
<path d="M482 8.8141C481.998 8.65349 481.869 8.52365 481.708 8.52222H478.961C478.8 8.52294 478.67 8.6532 478.669 8.8141V18.9572L471.971 8.6041C471.926 8.5341 471.887 8.52222 471.788 8.52222H469.241C469.08 8.52435 468.951 8.65379 468.949 8.8141V25.2729C468.951 25.433 469.081 25.562 469.241 25.5635H471.986C472.146 25.5627 472.276 25.4331 472.277 25.2729V15.1034L478.976 25.4803C479.022 25.5503 479.059 25.5621 479.159 25.5621H481.705C481.866 25.5614 481.996 25.432 481.997 25.2716L482 8.8141Z" fill="#F2F2F2"/>
<path d="M463.589 8.8141C463.588 8.6532 463.458 8.52294 463.297 8.52222H460.553C460.392 8.52294 460.262 8.6532 460.261 8.8141V25.2716C460.262 25.4325 460.392 25.5627 460.553 25.5635H463.297C463.458 25.5627 463.588 25.4325 463.589 25.2716V8.8141Z" fill="#F2F2F2"/>
<path d="M430.741 17.0447C430.741 16.2259 430.751 15.5444 430.774 15.0016C430.791 14.559 430.835 14.1179 430.906 13.6809C431.16 12.2149 432.283 11.3498 433.716 11.3498C434.652 11.3577 435.5 11.7038 436.042 12.4909C436.287 12.8584 436.466 13.2661 436.57 13.6954C436.578 13.7406 436.619 13.7722 436.665 13.768H439.895C439.941 13.768 439.959 13.7363 439.951 13.6914C439.598 11.6932 438.532 9.89833 436.648 9.00949C435.722 8.58093 434.712 8.3665 433.691 8.38215C431.873 8.38215 430.341 9.00465 429.095 10.2496C428.384 10.9424 427.899 11.8336 427.703 12.8066C427.513 13.7645 427.417 15.1768 427.415 17.0434C427.413 18.91 427.509 20.3219 427.703 21.279C427.897 22.2532 428.381 23.1462 429.091 23.8412C430.336 25.0853 431.868 25.7073 433.687 25.7073C434.707 25.7228 435.718 25.5088 436.644 25.0813C438.528 24.1925 439.594 22.3976 439.947 20.3994C439.955 20.3531 439.937 20.3228 439.891 20.3228H436.66C436.614 20.318 436.572 20.3498 436.565 20.3954C436.46 20.8242 436.281 21.2314 436.036 21.5986C435.495 22.391 434.647 22.7331 433.711 22.7397C432.278 22.7397 431.155 21.8759 430.901 20.4099C430.829 19.9729 430.785 19.5318 430.769 19.0892C430.751 18.5438 430.741 17.8609 430.741 17.0447Z" fill="#F2F2F2"/>
<path d="M396.625 8.8141C396.624 8.6532 396.494 8.52294 396.333 8.52222H393.589C393.428 8.52294 393.298 8.6532 393.297 8.8141V25.2729C393.299 25.4333 393.429 25.5627 393.589 25.5636H396.333C396.494 25.5627 396.624 25.4333 396.625 25.2729V20.4417L398.827 17.8095L403.351 25.4763C403.386 25.5328 403.448 25.5662 403.515 25.5636H406.849C407.002 25.5636 407.03 25.4684 406.954 25.3376L401.031 15.3001L406.465 8.78372C406.574 8.65165 406.528 8.52618 406.356 8.52618H402.711C402.667 8.52357 402.624 8.54342 402.598 8.57901L396.625 15.7399V8.8141Z" fill="#F2F2F2"/>
<path d="M416.616 22.7398C415.072 22.7398 413.671 21.3107 413.671 19.6044V8.8141C413.671 8.6532 413.54 8.52294 413.379 8.52222H410.635C410.475 8.52294 410.344 8.6532 410.344 8.8141V19.5621C410.344 23.3196 413.155 25.7074 416.616 25.7074C420.077 25.7074 422.889 23.3196 422.889 19.5621V8.8141C422.887 8.65349 422.757 8.52365 422.597 8.52222H419.851C419.691 8.52366 419.562 8.65371 419.561 8.8141V19.6044C419.561 21.3094 418.159 22.7398 416.616 22.7398Z" fill="#F2F2F2"/>
<path fill-rule="evenodd" clip-rule="evenodd" d="M365.716 17.0449L374.234 25.5622L379.611 20.1869C380.573 19.3214 382.043 19.3599 382.958 20.2745C383.873 21.1891 383.912 22.6596 383.046 23.6208L375.95 30.7157C374.997 31.6528 373.469 31.6528 372.515 30.7157L362.278 20.4788V26.5633C362.278 27.9062 361.189 28.9948 359.846 28.9948C358.503 28.9948 357.414 27.9062 357.414 26.5633V7.51857C357.414 6.17572 358.503 5.08712 359.846 5.08712C361.189 5.08712 362.278 6.17572 362.278 7.51857V13.6031L372.514 3.36887C373.467 2.43108 374.996 2.43108 375.949 3.36887L383.05 10.4625C383.916 11.4236 383.877 12.8941 382.962 13.8087C382.047 14.7233 380.577 14.7618 379.615 13.8963L374.238 8.52099L365.716 17.0449ZM374.238 14.6108C373.253 14.6103 372.365 15.203 371.988 16.1125C371.611 17.022 371.819 18.0692 372.515 18.7656C373.211 19.462 374.258 19.6705 375.168 19.2938C376.078 18.9172 376.672 18.0295 376.672 17.0449C376.672 16.3994 376.416 15.7801 375.959 15.3234C375.503 14.8666 374.884 14.6099 374.238 14.6095V14.6108Z" fill="#F2F2F2"/>
</svg>
