<?xml version="1.0" encoding="UTF-8" standalone="no"?> <svg width="64" height="64" fill="white" viewBox="0 0 64 64"  xmlns="http://www.w3.org/2000/svg">
<path d="M56.1401 29.3901H7.85011C4.67999 29.3901 2.11011 31.96 2.11011 35.1301V56.2601C2.11011 59.4303 4.67999 62.0001 7.85011 62.0001H56.1401C59.3102 62.0001 61.8801 59.4303 61.8801 56.2601V35.1301C61.8801 31.96 59.3102 29.3901 56.1401 29.3901Z" fill="white"/>
<path d="M9.67017 24.1899H54.3302C54.8606 24.1899 55.3693 23.9792 55.7444 23.6042C56.1194 23.2291 56.3302 22.7204 56.3302 22.1899C56.3302 21.6595 56.1194 21.1508 55.7444 20.7757C55.3693 20.4007 54.8606 20.1899 54.3302 20.1899H9.67017C9.13973 20.1899 8.63103 20.4007 8.25595 20.7757C7.88088 21.1508 7.67017 21.6595 7.67017 22.1899C7.67017 22.7204 7.88088 23.2291 8.25595 23.6042C8.63103 23.9792 9.13973 24.1899 9.67017 24.1899Z" fill="black"/>
<path d="M16.79 14.8599H47.21C47.7405 14.8599 48.2492 14.6492 48.6243 14.2741C48.9993 13.899 49.21 13.3903 49.21 12.8599C49.21 12.3294 48.9993 11.8207 48.6243 11.4457C48.2492 11.0706 47.7405 10.8599 47.21 10.8599H16.79C16.2596 10.8599 15.7509 11.0706 15.3758 11.4457C15.0008 11.8207 14.79 12.3294 14.79 12.8599C14.79 13.3903 15.0008 13.899 15.3758 14.2741C15.7509 14.6492 16.2596 14.8599 16.79 14.8599V14.8599Z" fill="black"/>
<path d="M25.6602 6H38.3402C38.8706 6 39.3793 5.78929 39.7544 5.41421C40.1294 5.03914 40.3402 4.53043 40.3402 4C40.3402 3.46957 40.1294 2.96086 39.7544 2.58579C39.3793 2.21071 38.8706 2 38.3402 2H25.6602C25.1297 2 24.621 2.21071 24.2459 2.58579C23.8709 2.96086 23.6602 3.46957 23.6602 4C23.6602 4.53043 23.8709 5.03914 24.2459 5.41421C24.621 5.78929 25.1297 6 25.6602 6V6Z" fill="black"/>
</svg>
