<?xml version="1.0" encoding="UTF-8" standalone="no"?> <svg xmlns="http://www.w3.org/2000/svg"  viewBox="0 0 51.44 64" fill="white" ><defs><style>.cls-1{fill:white;}</style></defs><title>Asset 24</title><g id="Layer_2" data-name="Layer 2"><g id="Layer_1-2" data-name="Layer 1"><path class="cls-1" d="M51.44,11.72V45.05a4.32,4.32,0,0,1,0,.54c-.41,2.73-3.85,4.87-8.07,4.87-4.5,0-8.12-2.43-8.12-5.41s3.62-5.42,8.12-5.42A10.76,10.76,0,0,1,46,40V11.72a2.67,2.67,0,0,0-2.25-2.65L22.12,5.44a2.74,2.74,0,0,0-2.22.62A2.7,2.7,0,0,0,19,8.12V57.23a5.46,5.46,0,0,1-1.7,3.87A10.89,10.89,0,0,1,9.48,64C4.25,64,0,61,0,57.23s4.25-6.77,9.48-6.77a12.26,12.26,0,0,1,4.06.68v-43A8.11,8.11,0,0,1,23,.11L44.64,3.73A8.06,8.06,0,0,1,51.44,11.72Z"/></g></g></svg>