<?xml version="1.0" standalone="no"?>
<!DOCTYPE svg PUBLIC "-//W3C//DTD SVG 20010904//EN"
 "http://www.w3.org/TR/2001/REC-SVG-20010904/DTD/svg10.dtd">
<svg version="1.0" xmlns="http://www.w3.org/2000/svg"
 width="77.000000pt" height="77.000000pt" viewBox="0 0 77.000000 77.000000"
 preserveAspectRatio="xMidYMid meet">

<g transform="translate(0.000000,77.000000) scale(0.100000,-0.100000)"
fill="#000000" stroke="none">
<path d="M283 726 c-103 -34 -176 -98 -222 -196 -22 -46 -26 -69 -26 -140 0
-76 4 -93 33 -152 38 -77 92 -130 171 -167 47 -22 70 -26 141 -26 71 0 94 4
141 26 79 37 133 90 171 167 29 59 33 76 33 152 0 71 -4 94 -26 141 -58 124
-169 199 -302 205 -43 3 -89 -2 -114 -10z m177 -166 c0 -25 -136 -330 -147
-330 -7 0 -13 5 -13 11 0 27 134 329 147 329 7 0 13 -4 13 -10z m-201 -137
l-22 -23 22 -23 c18 -20 19 -26 8 -35 -11 -9 -21 -4 -47 23 l-34 35 34 35 c26
27 36 32 47 23 11 -9 10 -15 -8 -35z m281 -78 c-26 -27 -36 -32 -47 -23 -11 9
-10 15 8 35 l22 23 -21 23 c-17 18 -19 26 -10 35 10 10 20 5 47 -23 l35 -35
-34 -35z"/>
</g>
</svg>
